<svg xmlns="http://www.w3.org/2000/svg" viewBox="0 0 2742 1828" id="woman-balances-between-finance-and-investment">
  <g>
    <path fill="#fff" d="M534.06 455.2a4.57 4.57 0 0 1-4.57-4.46L526.93 341.6a4.56 4.56 0 0 1 4.46-4.68 4.49 4.49 0 0 1 4.67 4.46l2.57 109.15a4.57 4.57 0 0 1-4.46 4.67ZM299 687.58h0L227 686.8a4.57 4.57 0 1 1 .1-9.14l71.92.78a4.57 4.57 0 0 1-.05 9.14ZM849.38 693.52h0l-83.28-.9a4.56 4.56 0 0 1-4.52-4.61 4.48 4.48 0 0 1 4.62-4.53l83.27.9a4.57 4.57 0 0 1 0 9.14ZM611.71 466.75a4.7 4.7 0 0 1-1.51-.26 4.57 4.57 0 0 1-2.8-5.83L632.19 390a4.57 4.57 0 0 1 8.63 3L616 463.69A4.58 4.58 0 0 1 611.71 466.75ZM314.28 611.36a4.46 4.46 0 0 1-1.43-.23L206.22 575.85a4.57 4.57 0 0 1 2.87-8.68l106.63 35.28a4.57 4.57 0 0 1-1.44 8.91ZM853 809.44a4.67 4.67 0 0 1-1.7-.33L746 766.87a4.57 4.57 0 1 1 3.4-8.48l105.27 42.23a4.57 4.57 0 0 1-1.71 8.82ZM679.2 502.72a4.57 4.57 0 0 1-3.56-7.43l66.6-82.85a4.57 4.57 0 1 1 7.12 5.73L682.76 501A4.55 4.55 0 0 1 679.2 502.72ZM347.89 543.49a4.58 4.58 0 0 1-2.83-1l-56.4-44.6a4.57 4.57 0 0 1 5.67-7.17l56.4 44.6a4.57 4.57 0 0 1-2.84 8.16ZM776.46 882.42a4.57 4.57 0 0 1-2.83-1l-64.12-50.71a4.57 4.57 0 0 1 5.67-7.17l64.12 50.71a4.57 4.57 0 0 1-2.84 8.15ZM209.56 802.77A4.57 4.57 0 0 1 208 793.9l101.46-36.74a4.57 4.57 0 1 1 3.11 8.6L211.11 802.49A4.42 4.42 0 0 1 209.56 802.77ZM758.93 613a4.57 4.57 0 0 1-1.5-8.89l98.31-34.1a4.57 4.57 0 1 1 3 8.64l-98.31 34.09A4.64 4.64 0 0 1 758.93 613ZM459.37 468.25a4.57 4.57 0 0 1-4.34-3.13l-23.68-71.06a4.57 4.57 0 1 1 8.67-2.89l23.68 71.07a4.57 4.57 0 0 1-2.89 5.78A4.52 4.52 0 0 1 459.37 468.25ZM286 867.56a4.57 4.57 0 0 1-2.67-8.28l59.51-42.7a4.57 4.57 0 0 1 5.32 7.43l-59.5 42.69A4.56 4.56 0 0 1 286 867.56ZM727.2 551a4.57 4.57 0 0 1-2.67-8.28l60.63-43.51a4.57 4.57 0 1 1 5.33 7.43l-60.63 43.5A4.56 4.56 0 0 1 727.2 551ZM398.83 499.71a4.57 4.57 0 0 1-3.73-1.92l-64.48-90.31a4.57 4.57 0 0 1 7.44-5.31l64.48 90.31a4.57 4.57 0 0 1-3.71 7.23Z"></path>
  </g>
  <g>
    <path fill="#fff" fill-rule="evenodd" d="M678.55,1103.78c0-7.77,2.92-17,10.13-29,8.71-14.57,34.09-58.72,62.88-65.14,5.27-1.18,13.47,34.1,36.8,83.78,26.1,55.57,60.16,117.53,82.59,152.73,9,14.14,18,30.53,21,30.34,5.91-.39.82-11.14,20.57-33.55,10.42-11.81,21.91-34.9,33.32-53.67,24.83-40.85,51.17-87.27,78.59-136,33.47-59.4,66.13-112.21,112.8-122.73,27.15-6.12,95.38-8.47,95.38-8.47s227.27,81,258.55,81c26.46,0,135.15-81.12,161.9-74.58,17,4.16,40.79,20.26,63.7,47.61,28.21,33.66,51.69,82.22,79,129.82,12.55,21.86,22.71,39.83,35.37,60.27,12.19,19.7,27,41.95,35.38,58.73,8,16,20.59,24.9,27.6,37.65,2.69,4.9,5.57,7.72,5.57,15.63,0,2.45,14.63-19.21,32.9-49,9.76-15.92,20.41-33.26,30.76-52.54,26.31-49,42.05-93.29,60.14-131,12.44-25.93,16.91-36.9,19.79-35.71,7.91,3.28,55,49.29,60.49,64.88,2.73,7.75,8.52,18.06,9.57,27.42.72,6.42-5.26,20-11.09,36-17.81,48.89-41.55,106.35-64.16,168.27-13.73,37.63-25.51,71.8-41,104.21a471.53,471.53,0,0,1-27,47.91c-9.18,14.37-18.71,30-29.37,39.1-2.67,2.28-10.23,6.5-20.19,6.16-11.77-.41-26.73-6.27-38.62-16.09a515.73,515.73,0,0,1-44.38-41.43c-27.84-29.25-57.39-65.2-83-97.23-42-52.56-72.69-96.35-72.69-96.35l1.05,49.53-3.89,38.41-7.54,39.71-13.72,45.55L1647.45,1471l-5,41.79,2.33,35.93,7.19,42.68,13.51,57.14,13.79,63.55,6,31.65,6,41.37-590.7-.9,7.74-56.86,21.51-84.7,15.54-65.91,4-43.17-1.91-36.33-7.7-44.36-20.8-98.76-5.84-49.46,1.18-53.35s-12.56,19.07-30.48,42.34c-21.11,27.4-50,61.87-78.87,96-36.26,42.84-73.92,78.56-82.44,87.45-14.23,14.84-48.5,32.37-60.95,25.5-15.46-8.53-22.7-15.07-41.74-48.84-6.37-11.27-15.57-22.57-21.87-34.57-11.17-21.32-19.81-48-28.7-71.22-14.46-37.88-27.82-72.94-41-107.11-16.05-41.72-29.07-77.75-38.44-103.65C684.62,1122.65,678.55,1111.55,678.55,1103.78Z"></path>
    <path fill="#ffe4ce" fill-rule="evenodd" d="M1212.81,552.7l67.46-16.57s147.21,70.69,171.52,85c12.54,7.1,14.75,52.08,12,68-2.21,14.3-9.08,22.13-9.08,22.13s5.54,19.85,17.77,30.88,19.21,13.57,19.21,13.57a261.69,261.69,0,0,0-4.48,52.93c.72,27.84,7.35,58.41,7.35,58.41s-46.53,43.8-68.13,81.41-18.27,69-18.27,69-13.65,2.61-35.17-1.29c-19.62-3.56-46.19-13.07-67.14-24.51-20.41-11.14-42.62-29.41-55.28-43.27-14.59-16-18.11-26.87-18.11-26.87s30.93.24,58.17-3.17c19.06-2.39,37.24-8.42,37.78-9.68,5.26-12.38-.66-47.67-1.48-49.08-5.64-10.8-58.52,13.35-74.87.47-17.29-14.33-19.07-32.09-24.43-51-6.49-21.85-14.47-49.76-15.6-52.75-8.89-22.35-21.11-20.12-22.43-37.9-.88-13.94,24.73-21.65,24.72-34.91-1.43-31.8-12.68-60.89-11.29-82.12C1202.8,586.65,1205.08,559.86,1212.81,552.7Z"></path>
    <path fill="#ce6b59" fill-rule="evenodd" d="M1204.31,507.3c11.58-7.61,37.89-14.8,52.82-20.47,20.9-7.94,46.41-26.25,69.21-31.3,34.83-8.8,81.07-12.87,103.62-6.95s36.9,9.86,58.45,20.57,49.52,65,49.52,65,14.82-14.49,36.86-15.63c21.7-1.12,50.53,11,63.59,24.33,2.21,2.25,35,37.85,39.14,74,3.17,27.93-5.37,53.58-12.2,77.87-4.45,15.85-7.55,33.39-8.36,42.72-.12,1.35.52,12.15,4.18,22.94s10.22,21.26,15.64,25.73c12.66,10.44,27.25-6.91,25.17-3.3-2.62,4.54-5,8.19-8.34,10.85a30.94,30.94,0,0,1-29.9,4.93c-13.48-5.3-19.67-20.37-25.45-23.28-2.55-1.28-6.76,18.33,3.24,40.8,11.06,24.87,36.91,54.07,44.39,80.32,5.9,20.7-5.05,46.44-5.05,46.44s-24.42-17.73-27.24-13.84c-2.38,3.31-14,39.62-10,67.8,3.21,22.33,15,40.25,18.56,62.58,2.77,17.45-2.08,35.09-9.94,50.32-2.35,4.57-15.92,18.36-28.85,29.56-14.34,12.43-28.33,22.88-34.28,39.64-3.9,11-3.11,25.73,2.61,36.37,4.87,9.06,15,15,10.32,15.06-2.81.06-12.12,2.22-23.57-3.82-11.06-5.83-24.23-19.64-28.67-31.79s-4.67-29-2.26-41.58c3.13-16.27,9.87-26.63,8.6-25.36-7.35,7.41-21.53,14.12-33.15,15-9.65.75-17-3.64-22-4.8-6.72-1.57,9.34,1.39,22.49-6.3,8.47-5,15.74-16.12,15-29.77a61.84,61.84,0,0,0-10.33-30.27c-9.83-14.39-24.85-26.74-33.35-43.85-13.64-27.45-12.91-62.08-14.13-59.94-1.84,3.26-11.16,10.54-18.12,28.38-6.48,16.56-10.82,38.76-10.56,55.68.16,10.47,7.22,27.07,13,34.06,7.18,8.61,13.42,11,12.48,12.06-3.49,4.06-17,3.85-18.91,3.3-7.19-2.12-22.2-6.64-33.7-22.92-14.08-20-23.54-54.66-15-88.49,5.1-20.13,15.15-41.13,27.3-58.25,25.26-35.61,60.15-64.22,82.6-101.8,14.32-24,25.43-56.8,29.15-78.82,3.64-21.48.66-33.38-.43-32.12-8.17,9.49-15.89,20.83-24.27,27.61-10.22,8.28-20.94,10.85-33.74,8-12.49-2.8-26.38-5.76-36.26-11.78a57.26,57.26,0,0,1-16.47-15.63,56.69,56.69,0,0,0,15.55-13.57c4.55-5.9,7.67-16.29,8-17.56,3.75-14.49,4.18-37.16-9.86-50.31-12.4-12.57-35.29,5-59.72,9.41-16.83,2.78-38.29-7.16-38.29-7.16l18.22,35.28,21.47,23.2s-48.61-15.3-70.76-50.9c-19.22-30.48-38.22-78.93-67.5-95.74-27.67-16.22-45.38,18.64-49.21,32.35-1.08,4-3.56,29-.69,46.58,1.17,9.95-19.25-7.24-30.26-29.13-7.71-15.32-8.84-31.46-3.15-48.51C1178.86,536.05,1185.6,520.44,1204.31,507.3Z"></path>
    <path fill="#ffe4ce" fill-rule="evenodd" d="M1456.31 1014.48s5.08-13.92 7.72-21.07 17.11-27.28 17.11-27.28 1.51 15.62 3.39 23.33 4.36 19.36 4.36 19.36ZM701.73 1107.45s-6.9-22.5-10.43-29.53-14.09-33.67-18.66-41.57-11.68-19.3-18.48-24.48a56.18 56.18 0 0 0-21.65-10.11c-7.18-1.59-28.67-4.19-39.53-5.93s-38.72-5.93-53.66-11.42-31.56-13.13-42.43-22.85S466 937.73 452.84 925.93s-25.57-19.12-33.49-27.34-10.24-11.63-7.69-15.31 9.18-.42 6.38-6.4-3-7.27 2.24-7.94 19.49 2.83 19.49 2.83 1.24-4 2.22-6.64 7.13-6.54 11-6.15 15.72 5.41 22.18 7.76 20.48 11.55 26.88 15 35.13 21.84 35.13 21.84 2.55-4-1.06-6.6-11.17-7.84-14.85-11-6.45-7.61-5.86-10.78 5.69-3.2 11.84-1.89 13 5.38 18.47 9.2S566 898.51 570 901.06s14.68 10.12 20.79 10.78 25.07 1.57 32.18 1.63 28.13 4.1 35.95 6.94 29.08 15.65 36.27 20.82 17.57 17.43 24.36 28.21 10 16.66 15.57 26.22S750 1024.59 750 1024.59s-2.25 16.87-4.44 24.41-7.93 21.33-11.6 27-10.86 16.12-17 20.9S701.73 1107.45 701.73 1107.45ZM2041.48 1025.2s11.72-22 17.81-32.83 16.59-27.17 24.53-36.44 19.93-21 28.43-26.51 21.82-9.46 28.67-11.78 26.94-5 32.3-4.83 16.52.44 23.46-.83 15.34-3.09 23.78-9.2 13.16-10.59 20.16-16.14a95.15 95.15 0 0 1 19.24-12c7-3.41 12-4.93 14.7-3s2.27 6.22-1.41 10.4-9.64 7.07-13.11 11.23-7.68 12.25-3.58 10.17 13.78-8.52 21-13.66 21.07-13 27.56-17a128.62 128.62 0 0 1 22.18-10.33c7.66-2.83 7.91-2.43 13.46-2.5s6.53 1.13 7.93 4.86 1.94 7.31 9.26 5.36 10.07-2.18 14.45-1.08 1.42 3.94.89 7.62 2.07 3.88 5.44 5.72-1.15 8.66-4.78 13.48-19 17.32-24.37 21.66-25.62 19.63-29.15 23.16-24.14 19.5-29.56 23.4-18.67 11.31-27.95 15.14-22.44 9.72-33.83 11.6-25 4.6-33.3 5.56-19.81 3.28-30.75 5.34-17-1-24.09 5.8-13.85 17.29-18.66 25.64-15.32 31.75-18.94 39.14-13.78 34.82-13.78 34.82-20.72-16.32-23.63-20.12-13.54-19.75-15.5-24.92-3.71-15.07-5.59-21.75S2041.48 1025.2 2041.48 1025.2Z"></path>
    <path fill="#fff" fill-rule="evenodd" d="M352.78,618l183-113.22L717.72,618l8,8.09L721,632.3l-374.09-.09-1.39-8.85Z"></path>
    <path fill="#ffada8" fill-rule="evenodd" d="M2032.89,690.47c0-77,74.21-139.38,165.75-139.38s165.75,62.41,165.75,139.38-74.21,139.38-165.75,139.38S2032.89,767.45,2032.89,690.47Z"></path>
    <path fill="#ffada8" fill-rule="evenodd" d="M2055.13,619.82s-.4-7.23-6-10.44-10.84-6.62-16.26-5.42-14.25,6.43-17.46,11.25-10,12.84-12,18.66-4.62,8.43-3.42,13,3.62,8.23,7,8.43,9.63-1.61,14.65-3.21,10.24-4,13.85-3.82,5.62,0,8-6.62S2055.13,619.82,2055.13,619.82Z"></path>
    <path fill="#e86e66" fill-rule="evenodd" d="M2032.45 688.86c7.18-3.4 12.45-3.2 17.66-4.61s14.86 0 19.07 1.41 12.45 4.21 16.06 9.23 8.23 13.45 8.83 18.46-1.4 15.86-4 18.87-5.82 6-13.65 9.43a62.15 62.15 0 0 1-25.29 4.82c-8-.2-17.06-4-20.08-6.62s-7-7.83-10.23-13.45-5.42-8.83-4.62-15.45a24.85 24.85 0 0 1 5.22-13.05C2023.62 694.89 2025.27 692.28 2032.45 688.86ZM2232.78 608.7l14.17-8.76s12.38 21.2 14.07 24.34 11.7 24.73 11.7 24.73l-16.16 5.66s-8.13-19.8-11.32-25.65S2232.78 608.7 2232.78 608.7Z"></path>
    <path fill="#ffada8" fill-rule="evenodd" d="M2074.05 781.29s.3 8.78 1.48 12.46 2.85 12.51 5.65 16.42 8.65 10.35 8.65 10.35a6.86 6.86 0 0 0 8.94-.77c4.4-4.22 11.74-13.37 11.74-13.37ZM2117.5 809.5l46.31 16s-3.41 8.16-4.81 12.87-4.38 12.59-8.5 13.83-7.37 2.37-11.7-1.11A35.55 35.55 0 0 1 2128.05 837c-2.94-6.6-4.82-10.41-6.6-15.15S2117.5 809.5 2117.5 809.5ZM2226.76 827.79l29.65-6.55s-.59 8.9-3.72 12.5-8.12 6.77-11.8 6.37-5.3-2.44-8.84-5.13A18.64 18.64 0 0 1 2226.76 827.79ZM2264.57 820.07l35.81-17s-.54 12.39-1.87 16-6.52 12.51-9.58 15.31-12.11.26-16-3.2S2264.57 820.07 2264.57 820.07Z"></path>
    <path fill="#fac963" fill-rule="evenodd" d="M2232,608.23s-9-17.07-13.84-22.17-14.51-16.53-19.89-21-16.79-11.55-16.79-11.55.67-10.62,2.82-17.47,8.46-16.8,12.76-21.5,11.15-7.52,17.2-8.73,15,1.48,20,3.09,14.51,8.73,17.73,13.7,7.26,18.27,8.2,25.26-.27,14.38-1.21,21.5-1.88,12.9-7,21.23-7.25,8.19-10.61,11.42S2232,608.23,2232,608.23Z"></path>
    <path fill="#fff" fill-rule="evenodd" d="M376.06,632.18l.82,18,3.89,7L380,783.82l-13.3.82.2,13.92-10,1.43-3.88,12.07,5.73,12.28,359.22,1,4.59-14.1L717,798.43l-13.15.21,0-13.75L690,784.58,690.31,655l5.3-3.27-.12-20.26-42.67.23,0,19.72,4.52,4.07.33,129-57.85-.09-.27-128.59,4.84-4.67-.47-19.09-42.21.12.18,19.73,5.73,3.81-.39,128.63-63.86-.11.29-129.17,5-3.64-1.13-18.65-41.37-.34-.25,19,5.55,4.11.41,128.67-59.09-.1V655.93l3.91-5.67-.19-18.37Z"></path>
  </g>
  <g>
    <path fill="#571519" d="M1421.52,735.49a4.57,4.57,0,0,1-.42-9.12c12.58-1.18,22.91-6.69,29.87-15.94,8-10.69,10.81-25.37,7.78-41.32-1.92-10.17-5.83-16.94-11.6-20.13-6.38-3.52-15.45-3-27,1.53a4.57,4.57,0,0,1-3.36-8.5c14.16-5.59,25.84-5.93,34.72-1,8.27,4.56,13.71,13.45,16.17,26.43,3.52,18.51.16,35.74-9.46,48.52-8.54,11.36-21.11,18.12-36.32,19.54Z"></path>
    <path fill="#571519" d="M1424.94,698.42a4.31,4.31,0,0,1-.93-.09,4.57,4.57,0,0,1-3.55-5.4c2.93-14.16,12.17-18.31,12.56-18.48a4.57,4.57,0,0,1,3.71,8.35c-.34.17-5.43,2.83-7.31,12A4.57,4.57,0,0,1,1424.94,698.42Z"></path>
    <path fill="#571519" fill-rule="evenodd" d="M1241.53,679.71c-.91-7.7,2.11-15.08,7.5-15.71s10.73,5,11.64,12.66-2.12,15.07-7.5,15.7S1242.44,687.4,1241.53,679.71Z"></path>
    <path fill="#571519" d="M1229.27 633.46a4.57 4.57 0 0 1-2.51-8.39c12-7.89 27.64-8.47 41.79-1.58a4.57 4.57 0 0 1-4 8.22c-11.23-5.48-23.48-5.1-32.77 1A4.59 4.59 0 0 1 1229.27 633.46ZM1326.31 924.1a4.47 4.47 0 0 1-1.63-.3 4.57 4.57 0 0 1-2.64-5.9c8.54-22.3 4-54.58-.55-56.83-5.17.36-11.11 1.26-18 2.31-9 1.38-19.29 2.94-32.21 3.8-23.76 1.1-33.46-12.32-43-37.38-6.93-19.78-11-34.49-15.77-53.25a4.57 4.57 0 0 1 8.86-2.24c4.69 18.51 8.72 33 15.49 52.36 9.52 25.06 17.1 32.11 33.89 31.39 12.43-.83 22.47-2.36 31.33-3.72 7.1-1.08 13.23-2 19.1-2.35 2.22-.12 5.51.54 8.39 4.47 8.21 11.23 8.7 44.49 1 64.71A4.57 4.57 0 0 1 1326.31 924.1Z"></path>
    <path fill="#571519" d="M1217.08,780.77a4.57,4.57,0,0,1-4.48-3.67c-1-5.06-4.59-19.62-8.86-26.12a46.72,46.72,0,0,0-7.14-8.75c-4.93-5.16-10.51-11-11.48-19.18-1.91-10.2,5.17-16,11.41-21.1a60.58,60.58,0,0,0,7.79-7.19c4.57-4.53,6.91-8.45,3.12-27a4.57,4.57,0,0,1,9-1.82c3.82,18.74,2.51,27.26-5.4,35.08a68.13,68.13,0,0,1-8.68,8c-6.17,5.05-9.09,7.7-8.17,12.65.66,5.44,4.74,9.72,9.06,14.25,3,3.17,6.16,6.45,8.33,10.3,6,9,9.86,28.27,10,29.08a4.57,4.57,0,0,1-3.58,5.38A4.66,4.66,0,0,1,1217.08,780.77Z"></path>
    <path fill="#571519" d="M1211.83 670.63a4.56 4.56 0 0 1-4.44-3.49c-4.42-18.26-9.42-38.95-8.68-60.28-.08-10 2.24-20.86 6.89-32a4.57 4.57 0 0 1 8.44 3.51c-4.17 10-6.26 19.65-6.19 28.63-.7 20.27 4.15 40.31 8.42 58a4.57 4.57 0 0 1-3.37 5.52A4.94 4.94 0 0 1 1211.83 670.63ZM1248.67 785.79c-.89 0-1.44 0-1.57 0a4.57 4.57 0 0 1 .42-9.13c.24 0 22.25.82 40-12a4.57 4.57 0 0 1 5.35 7.42C1275.17 784.82 1254.5 785.79 1248.67 785.79ZM1268.08 678a4.57 4.57 0 0 1-3.27-1.38c-7.35-7.52-19.11-7.27-24.77-4.17a4.57 4.57 0 0 1-4.37-8c9.63-5.24 25.61-4.5 35.68 5.82a4.56 4.56 0 0 1-3.27 7.76ZM1415.85 712.18c-22 0-62.13-6.54-92.13-48.58-11.49-15.89-20.75-33.27-28.91-48.6-17.88-33.55-32-60-59-56.38a4.57 4.57 0 0 1-1.23-9c33.24-4.56 49.49 25.89 68.26 61.13 8.43 15.81 17.13 32.16 28.27 47.57 39.77 55.71 96.6 44.17 99 43.64a4.57 4.57 0 0 1 2 8.93A85.26 85.26 0 0 1 1415.85 712.18Z"></path>
    <path fill="#571519" d="M1414.77,711.33a4.58,4.58,0,0,1-.9-.09c-45.09-9-59.37-43.84-70.14-78.69-1-3.28-2-6.87-3.15-10.69-5.77-20-12.94-44.82-28.65-65.13a4.57,4.57,0,0,1,7.23-5.59c16.77,21.69,24.53,48.56,30.2,68.19,1.08,3.75,2.1,7.28,3.11,10.52,10.36,33.57,23,64.36,63.2,72.43a4.57,4.57,0,0,1-.9,9.05Z"></path>
    <path fill="#571519" d="M1384.14 662.31c-15.67 0-29.46-8.37-36.37-18.87a4.57 4.57 0 0 1 7.64-5c7.32 11.13 24.56 19.16 42.14 12.12A4.57 4.57 0 0 1 1401 659 45 45 0 0 1 1384.14 662.31ZM1560.6 600.37a4.57 4.57 0 0 1-4.37-3.22l-1.89-6.17c-10.87-35.38-14.15-46.06-38.12-85.42-39.43-63.14-146.33-73.08-243.34-22.6a4.57 4.57 0 1 1-4.21-8.11C1369.88 422.18 1482 433.57 1524 500.76c24.59 40.38 28 51.32 39.07 87.54l1.9 6.15a4.59 4.59 0 0 1-3 5.72A4.49 4.49 0 0 1 1560.6 600.37ZM1201.08 645.87a4.59 4.59 0 0 1-2.25-.59c-20.23-11.48-44.18-47.2-31.3-87.41 17.48-55.3 53.82-66.79 87.06-70.73a4.57 4.57 0 1 1 1.08 9.08c-31.87 3.77-63.55 14.19-79.43 64.41-10.84 33.87 8.77 66.3 27.1 76.7a4.57 4.57 0 0 1-2.26 8.54ZM1493.18 866.88a4.58 4.58 0 0 1-4.49-3.75c-5.76-31.61-5.61-65.56-5.28-78.7A4.57 4.57 0 0 1 1488 780h.12a4.57 4.57 0 0 1 4.45 4.69c-.32 12.84-.48 46.05 5.13 76.82a4.56 4.56 0 0 1-3.67 5.31A4.76 4.76 0 0 1 1493.18 866.88Z"></path>
    <path fill="#571519" d="M1488 789.12h-.11a4.58 4.58 0 0 1-4.46-4.69c.3-11.67 1.19-25.83 2.8-30.59a4.57 4.57 0 1 1 8.66 2.94c-.68 2-1.9 11.31-2.32 27.89A4.57 4.57 0 0 1 1488 789.12ZM1470.28 748.55a46.69 46.69 0 0 1-26.28-8.08 4.57 4.57 0 0 1 5.07-7.61c14.87 9.92 30.29 6.66 40.62 2.17 26-11.29 47.08-40.91 50.46-61.5a4.57 4.57 0 0 1 9 1.48c-4.31 26.22-29.36 56.91-55.84 68.41A57.89 57.89 0 0 1 1470.28 748.55Z"></path>
    <path fill="#571519" d="M1499.21 759.41a46.28 46.28 0 0 1-5.57-.35 4.57 4.57 0 0 1 1.14-9.07c16.35 2 30.65-6.74 46.37-28.47a122.87 122.87 0 0 0 16.1-112.88 4.57 4.57 0 1 1 8.62-3 132 132 0 0 1-17.31 121.26C1538.25 741.12 1522.21 759.41 1499.21 759.41ZM1685.92 794.3a16.45 16.45 0 0 1-4.59-.66c-16.81-4.82-27.42-35.35-28.16-49.69-1-20.14 5.41-40.77 11.65-60.73 2.14-6.84 4.16-13.3 5.86-19.65 12.84-48.14-6.22-96.92-49.74-127.31-17.76-12.4-56.12-19.76-73.46-2.56a4.57 4.57 0 0 1-6.44-6.49c21.21-21.05 63.88-13.28 85.13 1.56 46.76 32.65 67.2 85.2 53.34 137.16-1.75 6.54-3.79 13.09-6 20-6 19.18-12.2 39-11.25 57.53.71 13.78 10.86 38.31 21.55 41.37 4.38 1.26 9-1.63 13.87-8.55a4.57 4.57 0 1 1 7.5 5.23C1698.24 791.52 1691.39 794.3 1685.92 794.3Z"></path>
    <path fill="#571519" d="M1675.43,804.81a41.52,41.52,0,0,1-17.88-4c-9.73-4.69-16.69-15.8-21.66-25a4.57,4.57,0,1,1,8-4.36c4,7.33,10.13,17.49,17.6,21.09,9.41,4.52,22.34,3.86,30.07-1.55,5.18-3.62,7.47-8.78,6.82-15.31a4.57,4.57,0,0,1,9.1-.91c1,9.79-2.82,18.21-10.68,23.71A37.62,37.62,0,0,1,1675.43,804.81Z"></path>
    <path fill="#571519" d="M1682.14 941.79a4.48 4.48 0 0 1-2.09-.51 4.58 4.58 0 0 1-2-6.16c6.08-11.8 6.31-29.19 3-39.18-4.87-14.84-13.82-28.68-22.46-42.07-15.22-23.57-31-48-26.35-79.37a4.57 4.57 0 1 1 9 1.33c-4.11 28 10 49.91 25 73.08 9 13.87 18.23 28.22 23.48 44.17 3.82 11.62 3.86 31.77-3.58 46.23A4.59 4.59 0 0 1 1682.14 941.79ZM1471.68 1106.63c-19.33 0-35.12-7.44-47-22.13-21.59-26.76-24.07-70.89-17.23-100.56 9-38.92 36-68.42 62.18-96.94 14.78-16.12 30.07-32.79 41.32-50.57 22.17-35.07 34.43-73.36 37.47-117a4.57 4.57 0 1 1 9.12.64c-3.15 45.23-15.87 84.91-38.87 121.29-11.68 18.48-27.25 35.45-42.3 51.87-25.36 27.65-51.59 56.24-60 92.82-6.56 28.46-3.36 69.46 15.45 92.76 10.2 12.65 24 19 40.77 18.72h.07a4.57 4.57 0 0 1 .06 9.14Z"></path>
    <path fill="#571519" d="M1496.45,1106.63a4.52,4.52,0,0,1-1.44-.23,70.64,70.64,0,0,0-7-1.82c-5.51-1.24-11.21-2.52-16.9-6.79-42.39-31.81-16.81-104.1,5.6-134a4.57,4.57,0,1,1,7.31,5.49c-21.84,29.1-43,94.48-7.43,121.17,4.13,3.09,8.44,4.06,13.43,5.18a78.54,78.54,0,0,1,7.86,2.07,4.57,4.57,0,0,1-1.45,8.9Z"></path>
    <path fill="#571519" d="M1508.81,1140.86a48.75,48.75,0,0,1-5.63-.34,4.57,4.57,0,0,1,1.08-9.08c10.08,1.21,17.79-1.44,22.94-7.84,7-8.68,8.43-24,3.56-38.1-3.31-9.58-9.85-16.69-16.77-24.22a127.29,127.29,0,0,1-12.93-15.7c-23-34.68-36.61-98-2.49-126.55a4.57,4.57,0,0,1,5.87,7c-32.52,27.26-13.29,88,4.24,114.5,3.46,5.23,7.63,9.76,12,14.55,7.26,7.89,14.76,16.05,18.69,27.43,5.94,17.23,3.95,35.61-5.08,46.81C1529.91,1134.8,1522.05,1140.86,1508.81,1140.86Z"></path>
    <path fill="#571519" d="M1518.06 1147c-8.58 0-15.26-3.41-21.72-6.7-2.16-1.1-4.35-2.22-6.64-3.22a4.57 4.57 0 0 1 3.64-8.38c2.47 1.07 4.83 2.27 7.15 3.46 6.11 3.11 11.51 5.94 18 5.69a48.21 48.21 0 0 0 37.13-17.36c18.88-21.89 23.72-60.4 20.23-86.92a4.57 4.57 0 1 1 9.06-1.19c3.87 29.42-1.54 69.92-22.37 94.08-11.48 13.32-26.25 20.23-43.89 20.53ZM1612.2 1235.67a24 24 0 0 1-18.49-8.66c-10.26-11.64-13-33.26-9.12-46.14 6.12-20.31 21.81-33.95 37-47.14 14.76-12.83 28.7-25 34.13-42.59 6.75-21.87 0-41.08-7.16-61.41a263.54 263.54 0 0 1-8-25.69c-7.11-29.64 0-76.7 23.82-101a4.57 4.57 0 1 1 6.52 6.4c-21 21.41-28 65.12-21.45 92.51a254.82 254.82 0 0 0 7.78 24.79c7.32 20.83 14.9 42.38 7.27 67.14-6.21 20.12-21.8 33.67-36.87 46.79-14.84 12.9-28.86 25.09-34.22 42.88-3.1 10.29-.67 28.5 7.23 37.46 4 4.55 8.85 6.3 14.73 5.29a4.57 4.57 0 0 1 1.52 9A27.39 27.39 0 0 1 1612.2 1235.67Z"></path>
    <path fill="#571519" d="M1594.81 1235.49c-11.09 0-20.94-6.37-29.4-13-30.28-23.86-29-68.26-10.36-95.72a4.57 4.57 0 1 1 7.57 5.13c-16.37 24.17-16.88 63.45 8.45 83.42 9.35 7.37 19.52 13.68 30.41 9.92a4.57 4.57 0 1 1 3 8.64A29.45 29.45 0 0 1 1594.81 1235.49ZM870 1376.53a4.49 4.49 0 0 1-2.58-.8 4.56 4.56 0 0 1-1.18-6.35c15.57-22.67 19.24-48.57 22.79-73.62a61.41 61.41 0 0 0 .16-10.26c-.21-5.79-.43-11.78 1.38-17.2 3-8.94 9.65-17.12 16.07-25a137 137 0 0 0 9.18-12.12c8.27-12.93 16.29-26.39 24-39.4 5.9-9.89 11.8-19.78 17.86-29.57 15.48-25 30.07-51.18 44.17-76.52 10-17.89 20.25-36.39 30.78-54.32 18.77-31.94 38.18-65 69.41-88.3 31-23.17 82.77-24.76 132.82-26.3 36.17-1.11 70.35-2.16 91-11.72a4.57 4.57 0 0 1 3.84 8.29c-22.32 10.35-57.4 11.42-94.53 12.56-48.63 1.5-98.92 3-127.64 24.49-29.74 22.22-48.68 54.45-67 85.61-10.48 17.84-20.75 36.29-30.68 54.13-14.15 25.44-28.78 51.73-44.38 76.89-6 9.75-11.91 19.6-17.78 29.44-7.79 13.07-15.85 26.59-24.2 39.64a145 145 0 0 1-9.78 13c-5.92 7.28-12 14.79-14.5 22.17-1.29 3.83-1.1 9-.92 14a68 68 0 0 1-.24 11.87c-3.7 26.1-7.52 53.08-24.31 77.51A4.57 4.57 0 0 1 870 1376.53Z"></path>
    <path fill="#571519" d="M870.81,1507.9a41.59,41.59,0,0,1-12.78-2c-16.1-5.19-29.71-28.19-40.64-46.66-2.94-5-5.73-9.68-8-13.07-18-26.37-29.27-56.5-40.19-85.64l-2.28-6.07c-4.43-11.78-12.36-32.52-21.75-57.06C731,1260.53,713.45,1214.61,699.7,1178c-25.25-67.28-25.17-67.33-21.15-70.07a6,6,0,0,1,3.55-.88c21-.76,35.94-16.2,44.72-29,16.87-24.64,18.88-54.67,19.63-66,.35-5.1.55-8.17,4.37-8.8a5.08,5.08,0,0,1,5.19,3c1.76,4.19,3.74,9.05,6,14.57,18.63,45.66,57.39,140.7,133.61,254.58a4.57,4.57,0,0,1-7.6,5.08c-75.65-113-114.63-207.58-133.67-254.25-1.91,15.24-6.65,37.45-20,56.93-9.37,13.68-25,30-47.54,32.64,7.17,22.36,44,118.68,66.85,178.33,9.4,24.55,17.34,45.31,21.78,57.1l2.28,6.08c10.73,28.64,21.82,58.24,39.18,83.7,2.47,3.63,5.19,8.23,8.35,13.56,9.61,16.25,22.77,38.49,35.57,42.61,27.54,8.87,59.71-22.76,78.93-41.66l3.7-3.62c33-32.16,149.8-172.25,166.63-204.68a4.57,4.57,0,1,1,8.11,4.2c-18.42,35.52-137,176.45-168.36,207l-3.67,3.6C928.15,1479.79,899.55,1507.9,870.81,1507.9Z"></path>
    <path fill="#571519" d="M680 1114.91a4.59 4.59 0 0 1-3.81-2c-5.81-8.72-1.58-18 1.81-25.53 1.85-4.06 3.59-7.9 3.59-10.9a4.57 4.57 0 1 1 9.14 0c0 5-2.24 9.91-4.4 14.68-3.44 7.59-5.33 12.49-2.53 16.68a4.58 4.58 0 0 1-3.8 7.11ZM748.11 1027.08a4.57 4.57 0 0 1-4.33-3.13c-3.88-11.61-11-23.06-17.84-34.13-1.77-2.84-3.51-5.65-5.17-8.41-22.28-37.13-44.53-53.93-82.09-62-6.76-1.44-14.53-1.36-22.73-1.27-11 .11-22.39.24-31.94-3.58-10.06-4-19-11.18-27.6-18.11-12.86-10.32-25-20.08-40.35-20.08a4.57 4.57 0 1 1 0-9.14c18.57 0 32.55 11.23 46.08 22.1 8.47 6.8 16.47 13.23 25.26 16.75 7.88 3.15 18.33 3 28.45 2.92 8.34-.09 17-.18 24.74 1.48 40.4 8.66 64.25 26.6 88 66.21 1.64 2.73 3.36 5.5 5.09 8.3 7.15 11.52 14.53 23.43 18.75 36.06a4.58 4.58 0 0 1-4.34 6Z"></path>
    <path fill="#571519" d="M538.71,905.79a4.59,4.59,0,0,1-4.17-2.7c-1.53-3.39-6.06-6.58-10.44-9.66-3.7-2.61-7.54-5.31-10.21-8.56-1.7-2-4.8-10.26-1.16-13.92,1.59-1.6,4.61-2.53,7.86.13a4.57,4.57,0,0,1,.66,6.43,5,5,0,0,1-.61.61,5.07,5.07,0,0,0,.45,1.14c1.74,2.09,4.91,4.33,8.27,6.69,5.39,3.79,11,7.71,13.52,13.39a4.57,4.57,0,0,1-2.29,6A4.83,4.83,0,0,1,538.71,905.79Zm-21-31.17-2.92,3.51,0,0Z"></path>
    <path fill="#571519" d="M566.78,924.86a4.54,4.54,0,0,1-1.79-.36c-17.74-7.59-34-18.4-49.66-28.86-13.45-9-26.15-17.44-39.18-23.55-8.33-3.9-16.52-7.44-25.2-7.79a9.15,9.15,0,0,0-3.81,1,4.57,4.57,0,0,1-8.73,2.14,7,7,0,0,1,.58-6.94c2.93-4.33,10.05-5.46,12.32-5.34,10.39.42,19.52,4.33,28.73,8.65,13.64,6.4,26.62,15,40.36,24.21,15.35,10.23,31.22,20.81,48.18,28.06a4.57,4.57,0,0,1-1.8,8.77Z"></path>
    <path fill="#571519" d="M544.06,937.64a4.27,4.27,0,0,1-1-.12c-21.16-4.73-41.25-19.35-60.68-33.48-11.42-8.32-22.22-16.18-32.8-21.77l-1.16-.61c-6.23-3.31-15.65-8.3-22.18-8.56a20.34,20.34,0,0,0-3.68.22,4.57,4.57,0,0,1-6.32,6.56c-5-4.06-5-7.65-4.13-10,2.32-6.14,12.48-6.06,14.5-6,8.6.34,18.71,5.7,26.09,9.61l1.14.6c11.17,5.91,22.22,14,33.92,22.47,18.68,13.59,38,27.64,57.29,32a4.57,4.57,0,0,1-1,9Z"></path>
    <path fill="#571519" d="M701.29,1110.43a4.57,4.57,0,0,1-4.31-3.06c-13.83-39.59-35.53-88.76-51.17-97-8.25-4.36-17.93-5.38-28.17-6.45-3.87-.41-7.73-.82-11.49-1.41-30.69-4.82-72.73-11.41-102.15-31.24-20-13.48-38.54-29.08-56.45-44.15-7-5.92-14.08-11.85-21.24-17.69l-1-.8c-8.94-7.07-18.06-15.35-18-23.26a9.58,9.58,0,0,1,4.07-7.73c1.75-1.3,7.05-5.26,24.59,4.75,6.49,3.7,13,8,19.22,12.22,9.79,6.55,19.91,13.32,30.17,17.72a4.57,4.57,0,1,1-3.6,8.4c-11-4.74-21.52-11.74-31.65-18.53-6.12-4.09-12.46-8.33-18.67-11.87-9.46-5.41-13.87-5.64-14.68-5.31-.31.24-.31.35-.31.48,0,1.34,1.36,5.58,14.49,15.95l1.12.9c7.2,5.86,14.28,11.82,21.35,17.77,17.73,14.93,36.06,30.36,55.68,43.58,27.74,18.68,68.61,25.1,98.46,29.78,3.61.56,7.31.95,11,1.35,10.65,1.12,21.67,2.28,31.49,7.47,22,11.61,46.15,75.25,55.52,102.07a4.59,4.59,0,0,1-2.81,5.83A4.69,4.69,0,0,1,701.29,1110.43Z"></path>
    <path fill="#571519" d="M531.64 982.82a4.56 4.56 0 0 1-4-2.34c-5.43-9.69-16.59-17.14-27.38-24.34-6.56-4.38-12.77-8.53-17.94-13.23a42.37 42.37 0 0 0-3.64-2.54c-6.59-4.34-14.78-9.74-12.84-16.63.94-3.33 3.95-7.47 13-8.37a38.55 38.55 0 0 1 12.8.94c9 2.55 17 7.77 24.7 12.82 8.39 5.5 16.31 10.69 24.89 12.12 7.64 1.26 16.36-1 24.79-3.24 3.59-1 7.31-1.92 10.89-2.61 25.28-4.82 62.91-.52 85.84 20.36a4.57 4.57 0 0 1-6.16 6.76c-20.59-18.76-54.84-22.55-78-18.14-3.28.63-6.68 1.52-10.29 2.47-9.36 2.46-19.05 5-28.6 3.41-10.48-1.74-19.59-7.71-28.41-13.48-7.45-4.89-14.5-9.51-22.17-11.67a29.53 29.53 0 0 0-9.42-.64c-2.74.27-4.23.93-4.81 1.4 1.34 2 6.48 5.34 8.78 6.86a41.75 41.75 0 0 1 4.78 3.42c4.66 4.24 10.58 8.2 16.86 12.39 11.69 7.8 23.77 15.87 30.27 27.48a4.57 4.57 0 0 1-4 6.8ZM1100.83 1788a2.55 2.55 0 0 1-.39 0 4.57 4.57 0 0 1-4.17-4.93c3.25-38.65 14.17-82 24.72-123.82 13.35-52.91 26-102.89 23.36-141.49-2.08-31-9.72-65.86-17.12-99.51-9-41-18.35-83.49-18.27-121.27 0-21 1.59-43.07 3.23-66.4 3.52-50.07 7.16-101.85-4.61-145.34a4.57 4.57 0 0 1 8.82-2.4c12.17 45 8.48 97.55 4.9 148.38-1.63 23.17-3.16 45.06-3.2 65.78-.07 36.77 9.14 78.72 18.06 119.29 7.46 34 15.19 69.12 17.31 100.86 2.69 40.05-10.09 90.7-23.61 144.34-10.47 41.51-21.3 84.44-24.48 122.34A4.57 4.57 0 0 1 1100.83 1788ZM1922 1376.53a4.57 4.57 0 0 1-3.77-2c-16.8-24.45-20.61-51.42-24.3-77.51a69.05 69.05 0 0 1-.25-11.88c.18-5 .38-10.12-.91-14-2.48-7.38-8.59-14.9-14.5-22.18a143.18 143.18 0 0 1-9.79-13c-8.35-13.07-16.42-26.59-24.22-39.68-5.87-9.83-11.73-19.67-17.76-29.4-15.6-25.17-30.24-51.47-44.4-76.91-9.93-17.84-20.19-36.28-30.66-54.11-18.32-31.16-37.25-63.4-67-85.61a116.15 116.15 0 0 0-30.11-16.17 4.57 4.57 0 1 1 3.13-8.58A124.81 124.81 0 0 1 1690 943.05c31.21 23.31 50.63 56.35 69.4 88.3 10.53 17.92 20.82 36.41 30.77 54.29 14.11 25.35 28.69 51.56 44.18 76.55 6.06 9.77 12 19.65 17.84 29.53 7.76 13 15.79 26.49 24.07 39.44a138.44 138.44 0 0 0 9.18 12.11c6.42 7.91 13.07 16.08 16.07 25 1.82 5.41 1.6 11.41 1.39 17.2a60.38 60.38 0 0 0 .16 10.26c3.54 25 7.2 50.94 22.78 73.62a4.56 4.56 0 0 1-1.17 6.35A4.52 4.52 0 0 1 1922 1376.53Z"></path>
    <path fill="#571519" d="M1921.24,1507.9c-28.75,0-57.34-28.11-75.36-45.83l-3.67-3.6c-32.74-31.93-144.42-167.94-162.36-202.52a4.57,4.57,0,1,1,8.11-4.22c17.39,33.51,129.67,170,160.63,200.2l3.7,3.62c19.21,18.9,51.35,50.52,78.93,41.66,12.8-4.11,26-26.35,35.56-42.58,3.16-5.34,5.89-10,8.37-13.59,17.34-25.44,28.43-55,39.16-83.66l2.3-6.12c4.42-11.77,12.35-32.48,21.72-57,22.84-59.69,59.73-156.08,66.9-178.45-22.5-2.65-38.17-19-47.54-32.64-13.33-19.48-18.07-41.69-20-56.94-19,46.69-58,141.22-133.68,254.26a4.57,4.57,0,0,1-7.6-5.08c76.24-113.9,115-208.94,133.63-254.62q3.36-8.25,6-14.53a5,5,0,0,1,5.19-3c3.82.63,4,3.71,4.37,8.8.76,11.31,2.77,41.34,19.63,66,8.78,12.82,23.67,28.26,44.73,29a6,6,0,0,1,3.55.89c4,2.73,4.09,2.78-21.18,70.12-13.76,36.65-31.34,82.59-45.46,119.49-9.37,24.49-17.29,45.18-21.71,56.94l-2.29,6.11c-10.92,29.13-22.21,59.25-40.17,85.6-2.31,3.39-5.1,8.1-8,13.09-10.93,18.47-24.53,41.45-40.63,46.64A41.59,41.59,0,0,1,1921.24,1507.9Z"></path>
    <path fill="#571519" d="M2112 1114.91a4.58 4.58 0 0 1-3.8-7.11c2.8-4.19.91-9.09-2.53-16.68-2.16-4.77-4.4-9.7-4.4-14.68a4.57 4.57 0 1 1 9.14 0c0 3 1.74 6.84 3.59 10.91 3.39 7.49 7.61 16.8 1.81 25.52A4.57 4.57 0 0 1 2112 1114.91ZM2043.94 1027.08a4.58 4.58 0 0 1-4.33-6c4.21-12.64 11.6-24.56 18.75-36.08 1.74-2.8 3.45-5.56 5.08-8.28 23.77-39.61 47.62-57.55 88-66.21 7.75-1.66 16.38-1.57 24.74-1.48 10.12.12 20.58.23 28.45-2.92 8.79-3.52 16.79-10 25.27-16.75 13.52-10.87 27.51-22.1 46.07-22.1a4.57 4.57 0 1 1 0 9.14c-15.35 0-27.49 9.76-40.35 20.08-8.63 6.93-17.54 14.09-27.6 18.11-9.55 3.83-20.94 3.7-31.93 3.58-8.22-.1-16-.18-22.73 1.27-37.58 8.06-59.82 24.86-82.1 62-1.66 2.75-3.39 5.55-5.15 8.39-6.87 11.07-14 22.53-17.85 34.15A4.57 4.57 0 0 1 2043.94 1027.08Z"></path>
    <path fill="#571519" d="M2253.34,905.79a4.65,4.65,0,0,1-1.88-.41,4.57,4.57,0,0,1-2.29-6c2.56-5.68,8.13-9.6,13.52-13.39,3.36-2.36,6.53-4.6,8.43-6.89a7.54,7.54,0,0,0,.36-1.09,4.58,4.58,0,0,1,0-6.89c3.25-2.66,6.27-1.73,7.86-.13,3.64,3.66.54,11.87-1.15,13.92-2.68,3.25-6.51,6-10.22,8.55-4.38,3.09-8.91,6.28-10.44,9.67A4.6,4.6,0,0,1,2253.34,905.79Z"></path>
    <path fill="#571519" d="M2225.26,924.86a4.57,4.57,0,0,1-1.79-8.77c17-7.25,32.83-17.83,48.19-28.06,13.74-9.16,26.72-17.81,40.35-24.21,9.22-4.32,18.34-8.23,28.73-8.65,2.09-.16,9.4,1,12.32,5.34a7,7,0,0,1,.57,7,4.57,4.57,0,0,1-8.72-2.15,9.85,9.85,0,0,0-3.81-1c-8.68.35-16.88,3.89-25.2,7.79-13,6.11-25.73,14.58-39.17,23.55-15.7,10.46-31.93,21.27-49.67,28.86A4.56,4.56,0,0,1,2225.26,924.86Z"></path>
    <path fill="#571519" d="M2248,937.64a4.57,4.57,0,0,1-1-9c19.31-4.32,38.62-18.37,57.29-32,11.7-8.52,22.75-16.56,33.91-22.47l1.17-.61c7.37-3.91,17.47-9.26,26.07-9.6,2-.1,12.18-.18,14.5,6,.87,2.3.86,5.89-4.12,10a4.57,4.57,0,0,1-6.32-6.56,19.48,19.48,0,0,0-3.69-.22c-6.52.26-15.94,5.25-22.17,8.55l-1.17.62c-10.58,5.59-21.37,13.45-32.8,21.77-19.43,14.13-39.51,28.75-60.67,33.48A4.42,4.42,0,0,1,2248,937.64Z"></path>
    <path fill="#571519" d="M2090.76,1110.43a4.69,4.69,0,0,1-1.51-.25,4.58,4.58,0,0,1-2.8-5.83c9.36-26.82,33.52-90.45,55.52-102.07,9.81-5.19,20.83-6.35,31.48-7.47,3.72-.4,7.42-.79,11-1.35,29.85-4.68,70.73-11.1,98.47-29.78,19.6-13.22,37.93-28.64,55.65-43.56,7.08-6,14.17-11.92,21.37-17.79l1.12-.9c13.13-10.37,14.51-14.61,14.49-15.95,0-.13,0-.24-.4-.54-.72-.28-5.14,0-14.6,5.37-6.2,3.54-12.53,7.78-18.66,11.87-10.13,6.78-20.61,13.79-31.65,18.53a4.57,4.57,0,1,1-3.6-8.4c10.26-4.4,20.38-11.17,30.17-17.72,6.25-4.19,12.72-8.52,19.22-12.22,11.81-6.74,19.85-8.29,24.59-4.75a9.58,9.58,0,0,1,4.07,7.73c.11,7.91-9,16.19-18,23.26l-1,.8c-7.17,5.84-14.22,11.78-21.26,17.7-17.91,15.07-36.42,30.66-56.44,44.14-29.42,19.83-71.46,26.42-102.15,31.24-3.76.59-7.62,1-11.49,1.41-10.24,1.07-19.91,2.09-28.17,6.45-15.65,8.27-37.34,57.43-51.16,97A4.58,4.58,0,0,1,2090.76,1110.43Z"></path>
    <path fill="#571519" d="M2260.41 982.82a4.57 4.57 0 0 1-4-6.8c6.5-11.61 18.59-19.68 30.28-27.49 6.27-4.18 12.2-8.14 16.86-12.38a39.47 39.47 0 0 1 4.77-3.42c2.3-1.52 7.44-4.9 8.78-6.86-.58-.47-2.06-1.13-4.8-1.4a29.19 29.19 0 0 0-9.43.64c-7.67 2.16-14.72 6.78-22.17 11.66-8.81 5.78-17.93 11.75-28.4 13.49-9.57 1.59-19.25-1-28.6-3.41-3.61-1-7-1.84-10.3-2.47-23.1-4.42-57.36-.63-78 18.14a4.57 4.57 0 0 1-6.15-6.76c22.92-20.87 60.56-25.18 85.84-20.36 3.59.69 7.3 1.66 10.9 2.61 8.43 2.21 17.13 4.5 24.78 3.24 8.58-1.43 16.5-6.62 24.89-12.12 7.71-5 15.67-10.27 24.7-12.82a39.07 39.07 0 0 1 12.8-.94c9 .9 12.05 5 13 8.37 2 6.89-6.25 12.28-12.83 16.62a42.49 42.49 0 0 0-3.65 2.55c-5.17 4.7-11.37 8.84-17.94 13.22-10.79 7.21-22 14.66-27.38 24.35A4.56 4.56 0 0 1 2260.41 982.82ZM1691.23 1788a4.56 4.56 0 0 1-4.55-4.19c-3.15-37.47-13.72-82-24-125-13.62-57.28-26.47-111.38-23.76-151.78 2.17-32.46 11.07-66.08 19.68-98.6 9.8-37.06 19.95-75.39 19.87-111.45 0-20.72-1.58-42.6-3.2-65.77-3.57-50.83-7.27-103.4 4.9-148.38a4.57 4.57 0 1 1 8.82 2.38c-11.77 43.5-8.12 95.28-4.61 145.36 1.65 23.33 3.19 45.36 3.23 66.39.08 37.26-10.22 76.18-20.18 113.81-8.49 32.1-17.27 65.29-19.39 96.87-2.62 39 10.08 92.47 23.53 149.06 10.3 43.36 21 88.2 24.16 126.35a4.56 4.56 0 0 1-4.17 4.93A2.42 2.42 0 0 1 1691.23 1788ZM717.68 623.44H353.49a4.57 4.57 0 0 1-2.4-8.46l182.1-112.23a4.54 4.54 0 0 1 4.79 0L720.08 615a4.57 4.57 0 0 1-2.4 8.46ZM369.61 614.3H701.56L535.59 512ZM2203.78 834.3q-6.84 0-13.75-.46c-61.12-4.09-116-35.75-143.12-82.63a4.57 4.57 0 0 1 7.91-4.58c25.65 44.28 77.69 74.2 135.82 78.09 43.12 2.85 84.56-8.47 116.69-32 31.89-23.31 50.77-55.81 53.15-91.51 3.75-56.06-35.24-109.55-97-133.08a4.57 4.57 0 0 1 3.26-8.54c65.57 25 106.92 82.13 102.9 142.23-2.57 38.44-22.77 73.34-56.87 98.28C2282.31 822.38 2244.05 834.3 2203.78 834.3ZM2034 688.41h-.14a4.57 4.57 0 0 1-4.43-4.71c0-1.52.12-3 .22-4.57 4.58-68.48 66.31-123.79 146.77-131.5a4.57 4.57 0 0 1 .88 9.1c-76 7.28-134.25 59-138.53 123-.1 1.43-.16 2.83-.2 4.23A4.57 4.57 0 0 1 2034 688.41Z"></path>
    <path fill="#571519" d="M2056.17,751.35c-1.18,0-2.36,0-3.55-.12-23.95-1.6-42.36-19.08-41-39h0c.66-9.82,5.91-18.67,14.81-24.94a48.38,48.38,0,0,1,31.06-8.2c24,1.6,42.37,19.07,41.05,39C2097.22,737,2078.57,751.35,2056.17,751.35Zm-35.47-38.47c-1,14.85,13.61,28,32.53,29.23s35.15-9.78,36.14-24.63-13.6-28-32.53-29.23c-9.32-.6-18.29,1.71-25.18,6.57-6.6,4.64-10.49,11.06-11,18.06Z"></path>
    <path fill="#571519" fill-rule="evenodd" d="M2092 667.66c.46-6.76 4.89-12 9.91-11.65s8.72 6.1 8.27 12.87-4.89 12-9.91 11.64S2091.53 674.43 2092 667.66ZM2032.94 663.92c.46-6.77 4.89-12 9.91-11.65s8.72 6.1 8.27 12.87-4.89 12-9.91 11.64S2032.49 670.69 2032.94 663.92Z"></path>
    <path fill="#571519" d="M2037 720a4.56 4.56 0 0 1-3.27-1.38 3.55 3.55 0 0 1-.47-.32l-1.41-1.11a4.57 4.57 0 1 1 5.66-7.17l.62.48a4.6 4.6 0 0 1 2.27 1.79l.41.62A4.58 4.58 0 0 1 2037 720ZM2064.68 721.41a4.57 4.57 0 0 1-1.71-8.81l2.21-1.11a4.57 4.57 0 1 1 5 7.64l-1.26.82a3.87 3.87 0 0 1-.78.41l-1.76.72A4.69 4.69 0 0 1 2064.68 721.41ZM2144.55 857.09a14.57 14.57 0 0 1-5.78-1.22c-14.64-6.26-23.43-35.92-24.61-43.76a4.57 4.57 0 1 1 9-1.36c1.4 9.31 10.1 32.84 19.16 36.71 1.35.58 3.24 1 5.95-.91 3.84-2.71 5.3-6.4 7-10.68a40.3 40.3 0 0 1 4.94-9.74 4.57 4.57 0 1 1 7.35 5.43 33.16 33.16 0 0 0-3.79 7.66c-1.94 4.93-4.15 10.52-10.23 14.8A15.61 15.61 0 0 1 2144.55 857.09ZM2283.5 841.46c-4.53 0-9.21-2.42-14-7.23a80.23 80.23 0 0 1-8.37-10.05 4.57 4.57 0 1 1 7.47-5.26 70.64 70.64 0 0 0 7.42 8.89c2.41 2.45 5.87 5.19 8.56 4.33 4.45-1.39 9-11.49 11.42-25.12a4.57 4.57 0 1 1 9 1.57c-1.84 10.56-6.58 28.8-17.69 32.28A13.09 13.09 0 0 1 2283.5 841.46ZM2094.14 824.88a14.06 14.06 0 0 1-4.27-.67c-13.27-4.18-20-26.73-20.32-40.65a4.57 4.57 0 0 1 4.45-4.68h.12a4.57 4.57 0 0 1 4.57 4.46c.35 14.12 7.25 30 13.93 32.16 4 1.26 8.27-3.11 11.15-7a4.57 4.57 0 1 1 7.35 5.42C2104.82 822.47 2098.86 824.88 2094.14 824.88Z"></path>
    <path fill="#571519" d="M2241.43 844c-4.35 0-10.23-1.91-15.81-9.85a4.57 4.57 0 1 1 7.47-5.26c2 2.91 5.09 6.31 8.91 5.94s8-4.6 10.74-10.77a4.57 4.57 0 1 1 8.36 3.7c-4.18 9.42-11 15.46-18.21 16.17A13.61 13.61 0 0 1 2241.43 844ZM2380 706.81c-5.47 0-11.1-1.95-16.47-5.83a4.57 4.57 0 0 1 5.36-7.41c8.84 6.39 15.66 4.11 19.84 1.09a20.75 20.75 0 0 0 3.33-3 37.61 37.61 0 0 1-15.79-16.75c-1.62-3.58-3.49-11-.23-16a9.53 9.53 0 0 1 8.39-4.18c11 .1 18.93 5.26 21.76 14.14a27.52 27.52 0 0 1-.14 15.82c5.59-1.88 10-7.65 11.25-14.87 1-5.53 0-12.87-5.61-16.93a4.57 4.57 0 1 1 5.36-7.4c7.55 5.46 11.09 15.38 9.25 25.9-1.9 10.88-9.07 19.61-18.26 22.25a20 20 0 0 1-6.55.73 31.32 31.32 0 0 1-7.4 7.7A23.82 23.82 0 0 1 2380 706.81Zm4.3-42.94a2.06 2.06 0 0 0-.67.08c-.51.68-.34 4.27 1 7.15a28 28 0 0 0 12.13 12.67c1.53-4.13 1.91-8.51.76-12.12-1.62-5.1-6-7.71-13.14-7.78ZM2259.71 658.39a10.94 10.94 0 0 1-3.47-.52 8.64 8.64 0 0 1-5.29-4.82c-16.76-37.79-46-85.77-73.3-96.63a4.57 4.57 0 1 1 3.38-8.5c38.49 15.32 71.95 87.18 78.27 101.43.46.13 3-.15 7.23-2.23-1.74-5.67-9.31-21.43-22.38-41.67a4.57 4.57 0 1 1 7.68-5c.26.41 26.3 40.87 24 50a5.26 5.26 0 0 1-2.52 3.38C2268 656.88 2263.41 658.39 2259.71 658.39Z"></path>
    <path fill="#571519" d="M2234.06,604.19a4.57,4.57,0,0,1-3.1-7.93c8.84-8.14,14.72-22,15.72-36.94,1.7-25.42-10.62-47-27.46-48.15-16.1-1-30.64,16.91-33.34,40.93a4.52,4.52,0,0,1-5.05,4,4.57,4.57,0,0,1-4-5c3.24-28.89,22.14-50.46,43-49,21.87,1.46,38,27.43,36,57.87-1.17,17.53-8,33.22-18.64,43.06A4.55,4.55,0,0,1,2234.06,604.19Z"></path>
    <path fill="#571519" d="M2238.92 609.25a4.57 4.57 0 0 1-2.46-8.42c11-7.05 18.91-22.87 20.07-40.32.85-12.62-1.73-24.64-7.25-33.86-5.19-8.69-12.37-13.77-20.2-14.29-2.31-.15-7.84-.84-7.84-.84l1.13-9.07s5.17.65 7.31.79c10.92.73 20.67 7.38 27.45 18.71 6.46 10.81 9.49 24.71 8.52 39.17-1.37 20.55-10.67 38.72-24.27 47.41A4.56 4.56 0 0 1 2238.92 609.25ZM2008.81 659.93a14.1 14.1 0 0 1-7.8-2c-3.26-2.1-5.15-5.58-5.62-10.34-1.41-14.21 21.47-43.75 34.12-47.56 6.31-1.9 16.84 2.21 23 7.11 5.58 4.44 6.53 8.61 6.35 11.33a4.51 4.51 0 0 1-4.86 4.25 4.57 4.57 0 0 1-4.26-4.86c0-.23-.45-1.61-2.93-3.57-5.3-4.23-12.68-6.09-14.65-5.5-8.61 2.59-28.6 28.32-27.65 37.9.18 1.85.67 3 1.46 3.55 3 1.92 11.68-1.05 17.43-3 7.29-2.5 13-4.47 17.13-2.08a4.57 4.57 0 0 1-4.32 8c-1.64-.13-6.56 1.55-9.86 2.67C2020.58 657.79 2014.33 659.93 2008.81 659.93Zm27.08-6.94ZM2186.5 679.5c-.42 0-.85 0-1.29 0-10.39-.69-18.13-7.84-24.95-14.14-5.24-4.84-10.2-9.42-15.71-10.91a4.57 4.57 0 1 1 2.39-8.82c7.68 2.08 13.7 7.64 19.52 13 6.27 5.79 12.19 11.26 19.36 11.74 2.91.21 4.08-.87 4.8-1.82 2.51-3.3 2.38-10.68.69-15.51-6.12-17.36-21.1-35.42-39.49-34-6.72.51-11.68 1.22-14.31 5.7a4.57 4.57 0 1 1-7.88-4.62c5.25-9 15-9.7 21.5-10.19 23.2-1.7 41.57 19.58 48.8 40.12 2.48 7 2.9 17.59-2 24.07A13.66 13.66 0 0 1 2186.5 679.5ZM1394.77 1021.79c-66.72 0-135.34-46.75-165.8-95.47a4.57 4.57 0 1 1 7.75-4.84c34.76 55.59 111.17 96.2 170.26 90.6a4.57 4.57 0 0 1 .87 9.1Q1401.33 1021.8 1394.77 1021.79ZM1460.93 1019.43a4.57 4.57 0 0 1-.43-9.12c8.41-.8 18.88-1.79 24.73-5a4.57 4.57 0 1 1 4.37 8c-7.49 4.09-18.51 5.14-28.24 6.06A3.1 3.1 0 0 1 1460.93 1019.43ZM719.4 637.26H351.06a11.38 11.38 0 0 1 0-22.75 4.57 4.57 0 1 1 0 9.14 2.26 2.26 0 0 0 0 4.47H719.4a2.26 2.26 0 0 0 0-4.47 4.57 4.57 0 0 1 0-9.14 11.38 11.38 0 0 1 0 22.75ZM715.59 828.56H359.78c-6.28 0-10.83-7.11-10.83-16.91s4.55-16.92 10.83-16.92h8.06a4.57 4.57 0 1 1 0 9.14h-7.68c-.66.66-2.07 3.27-2.07 7.78s1.41 7.12 2.07 7.77h355c.66-.65 2.08-3.27 2.08-7.77s-1.42-7.12-2.08-7.78H702a4.57 4.57 0 1 1 0-9.14h13.61c6.27 0 10.83 7.11 10.83 16.92S721.86 828.56 715.59 828.56Zm0-24.69h0Z"></path>
    <path fill="#571519" d="M700.36 803.61H370.47a8.39 8.39 0 0 1-8.55-8.2V788a8.39 8.39 0 0 1 8.55-8.2H700.36a8.38 8.38 0 0 1 8.54 8.2v7.42A8.38 8.38 0 0 1 700.36 803.61Zm-329.3-9.14h328.7v-5.54H371.06Zm329.3-5.54h0ZM533.69 600.45a24.7 24.7 0 1 1 24.88-24.7A24.82 24.82 0 0 1 533.69 600.45Zm0-40.25a15.56 15.56 0 1 0 15.74 15.55A15.66 15.66 0 0 0 533.69 560.2ZM411.8 660h-32c-5.15 0-9.34-4.45-9.34-9.92V634.81a4.57 4.57 0 0 1 9.14 0v15.28a1 1 0 0 0 .3.8l31.88 0a1.82 1.82 0 0 0 .21-.78V635.16a4.57 4.57 0 0 1 9.14 0v14.93C421.15 655.56 417 660 411.8 660ZM690.49 660H658a9.69 9.69 0 0 1-9.42-9.92V634.81a4.57 4.57 0 0 1 9.14 0v15.28a.94.94 0 0 0 .32.79h32.47a1 1 0 0 0 .29-.78V635.16a4.57 4.57 0 0 1 9.14 0v14.93A9.7 9.7 0 0 1 690.49 660ZM503.18 660H471a9.67 9.67 0 0 1-9.37-9.92V634.81a4.57 4.57 0 0 1 9.14 0v15.28a1 1 0 0 0 .31.8l32.11 0a1.41 1.41 0 0 0 .23-.78V635.16a4.57 4.57 0 1 1 9.14 0v14.93A9.67 9.67 0 0 1 503.18 660ZM599.14 660H566.92a9.67 9.67 0 0 1-9.38-9.92V634.81a4.57 4.57 0 0 1 9.14 0v15.28a1 1 0 0 0 .32.8l32.14 0a1.29 1.29 0 0 0 .24-.78V635.16a4.57 4.57 0 0 1 9.14 0v14.93A9.67 9.67 0 0 1 599.14 660Z"></path>
    <path fill="#571519" d="M380.22 786.89a4.56 4.56 0 0 1-4.57-4.57V656a4.57 4.57 0 1 1 9.14 0V782.32A4.57 4.57 0 0 1 380.22 786.89ZM412.71 786.89a4.57 4.57 0 0 1-4.57-4.57V656a4.57 4.57 0 0 1 9.14 0V782.32A4.56 4.56 0 0 1 412.71 786.89ZM471.62 786.89a4.57 4.57 0 0 1-4.57-4.57V656a4.57 4.57 0 1 1 9.14 0V782.32A4.57 4.57 0 0 1 471.62 786.89ZM504.12 786.89a4.56 4.56 0 0 1-4.57-4.57V656a4.57 4.57 0 1 1 9.14 0V782.32A4.57 4.57 0 0 1 504.12 786.89ZM567.59 786.89a4.57 4.57 0 0 1-4.57-4.57V656a4.57 4.57 0 1 1 9.14 0V782.32A4.57 4.57 0 0 1 567.59 786.89ZM600.09 786.89a4.56 4.56 0 0 1-4.57-4.57V656a4.57 4.57 0 1 1 9.14 0V782.32A4.57 4.57 0 0 1 600.09 786.89ZM657.57 787.27A4.58 4.58 0 0 1 653 782.7V656.36a4.57 4.57 0 1 1 9.14 0V782.7A4.58 4.58 0 0 1 657.57 787.27ZM690.25 787.45a4.57 4.57 0 0 1-4.57-4.57V656.54a4.57 4.57 0 0 1 9.14 0V782.88A4.56 4.56 0 0 1 690.25 787.45Z"></path>
  </g>
</svg>
